Coordinates
version=1
nRows=11
nColumns=63
inDegrees=yes

Units are S.I. units (second, meters, Newtons, ...)
If the header above contains a line with 'inDegrees', this indicates whether rotational values are in degrees (yes) or radians (no).

endheader
time	pelvis_tilt	pelvis_list	pelvis_rotation	pelvis_tx	pelvis_ty	pelvis_tz	hip_flexion_r	hip_adduction_r	hip_rotation_r	knee_angle_r	knee_angle_r_beta	ankle_angle_r	subtalar_angle_r	mtp_angle_r	hip_flexion_l	hip_adduction_l	hip_rotation_l	knee_angle_l	knee_angle_l_beta	ankle_angle_l	subtalar_angle_l	mtp_angle_l	L5_S1_Flex_Ext	L5_S1_Lat_Bending	L5_S1_axial_rotation	L4_L5_Flex_Ext	L4_L5_Lat_Bending	L4_L5_axial_rotation	L3_L4_Flex_Ext	L3_L4_Lat_Bending	L3_L4_axial_rotation	L2_L3_Flex_Ext	L2_L3_Lat_Bending	L2_L3_axial_rotation	L1_L2_Flex_Ext	L1_L2_Lat_Bending	L1_L2_axial_rotation	L1_T12_Flex_Ext	L1_T12_Lat_Bending	L1_T12_axial_rotation	Abs_r3	Abs_r2	Abs_r1	Abs_t1	Abs_t2	neck_flexion	neck_bending	neck_rotation	arm_flex_r	arm_add_r	arm_rot_r	elbow_flex_r	pro_sup_r	wrist_flex_r	wrist_dev_r	arm_flex_l	arm_add_l	arm_rot_l	elbow_flex_l	pro_sup_l	wrist_flex_l	wrist_dev_l
0.000000	-0.626603	-2.960435	94.395379	0.263657	0.978851	0.415302	1.177715	-0.290109	-9.964117	6.600814	0.115206	34.975792	0.764259	0.000000	3.291712	-1.378081	20.482820	5.990251	0.104550	35.725264	-1.012120	0.000000	0.213990	0.168407	-1.284232	0.397401	0.223981	-1.364496	0.351564	0.409464	-1.364496	0.244569	0.409464	-1.123703	0.198711	0.343415	-1.043438	0.122274	0.260862	-0.963174	1.528508	1.905049	-7.142510	0.000000	0.000000	17.479690	-0.686951	6.548723	23.445080	-14.615152	101.258546	51.866543	-10.275410	3.099370	4.196587	20.036617	-7.575448	79.577043	43.541400	71.380785	5.417446	-14.753893
0.020408	-0.785238	-2.809279	94.091626	0.262372	0.979950	0.415159	0.601089	-0.451795	-7.121600	5.849425	0.102092	33.639372	-2.358362	0.000000	2.682262	-1.133797	22.351767	5.328371	0.092998	34.820717	-3.208276	0.000000	0.206593	0.199182	-1.278564	0.383664	0.264911	-1.358474	0.339412	0.484290	-1.358474	0.236115	0.484290	-1.118743	0.191842	0.406171	-1.038833	0.118047	0.308532	-0.958923	1.475675	2.253181	-7.110988	0.000000	0.000000	17.038365	-0.804114	8.382879	23.083861	-16.400529	95.558611	53.908219	1.904641	1.786486	0.572826	17.123357	-9.863011	68.739965	46.975763	75.958289	2.164863	-13.517903
0.040816	-0.917680	-2.714343	93.836625	0.261314	0.980782	0.415152	0.198364	-0.597333	-4.759959	5.274376	0.092055	32.532497	-4.938075	0.000000	2.219459	-0.931655	23.856529	4.770716	0.083265	34.091058	-4.982131	0.000000	0.201799	0.222318	-1.272590	0.374761	0.295683	-1.352127	0.331536	0.540544	-1.352127	0.230636	0.540544	-1.113516	0.187391	0.453351	-1.033979	0.115308	0.344370	-0.954442	1.441432	2.514905	-7.077763	0.000000	0.000000	16.782919	-0.845913	9.768869	22.859606	-17.776541	91.137408	55.525578	11.655898	0.987395	-2.258950	15.253937	-11.587231	61.092558	49.728429	78.525915	-0.383090	-12.590455
0.061224	-1.027647	-2.667981	93.622569	0.260474	0.981378	0.415262	-0.050639	-0.728843	-2.836317	4.857666	0.084782	31.636595	-7.019162	0.000000	1.886543	-0.766787	25.025173	4.308823	0.075203	33.520892	-6.370939	0.000000	0.199378	0.238422	-1.265820	0.370264	0.317102	-1.344934	0.327557	0.579700	-1.344934	0.227869	0.579700	-1.107593	0.185142	0.486191	-1.028479	0.113924	0.369316	-0.949365	1.424134	2.697081	-7.040111	0.000000	0.000000	16.699170	-0.819565	10.750521	22.753295	-18.785648	87.860743	56.753778	19.226766	0.635637	-4.379910	14.307220	-12.814094	56.282360	51.866637	79.327765	-2.294649	-11.934080
0.081633	-1.118863	-2.662547	93.441651	0.259840	0.981766	0.415465	-0.166096	-0.848443	-1.307801	4.581296	0.079959	30.933093	-8.645899	0.000000	1.666754	-0.634331	25.885763	3.934227	0.068665	33.094823	-7.411953	0.000000	0.199098	0.248101	-1.257764	0.369745	0.329975	-1.336374	0.327098	0.603233	-1.336374	0.227549	0.603233	-1.100544	0.184882	0.505928	-1.021933	0.113765	0.384309	-0.943323	1.422137	2.806571	-6.995307	0.000000	0.000000	16.772932	-0.732286	11.371661	22.745908	-19.470309	85.594421	57.627979	24.865653	0.664748	-5.871222	14.162069	-13.609584	53.956907	53.457626	78.607943	-3.638051	-11.511314
0.102041	-1.195047	-2.690394	93.286063	0.259402	0.981976	0.415740	-0.168186	-0.958255	-0.131535	4.427265	0.077270	30.403419	-9.862567	0.000000	1.543332	-0.529419	26.466363	3.638466	0.063503	32.797455	-8.142426	0.000000	0.200730	0.251961	-1.247932	0.372776	0.335109	-1.325928	0.329780	0.612619	-1.325928	0.229415	0.612619	-1.091941	0.186398	0.513800	-1.013945	0.114697	0.390288	-0.935949	1.433796	2.850238	-6.940626	0.000000	0.000000	16.990020	-0.591294	11.676115	22.818426	-19.872985	84.204247	58.183339	28.820963	1.008268	-6.814052	14.697349	-14.039688	53.763736	54.568635	76.610552	-4.481533	-11.284690
0.122449	-1.259920	-2.743876	93.147998	0.259151	0.982038	0.416065	-0.077085	-1.060396	0.735355	4.377571	0.076403	30.029000	-10.713444	0.000000	1.499517	-0.447187	26.795040	3.413074	0.059569	32.613392	-8.599614	0.000000	0.204044	0.250609	-1.235835	0.378930	0.333310	-1.313075	0.335224	0.609331	-1.313075	0.233202	0.609331	-1.081356	0.189475	0.511042	-1.004116	0.116591	0.388194	-0.926876	1.457465	2.834941	-6.873344	0.000000	0.000000	17.336251	-0.403806	11.707712	22.951828	-20.036136	83.556028	58.455017	31.341104	1.599735	-7.289568	15.791922	-14.170390	55.350384	55.266904	73.579694	-4.893333	-11.216742
0.142857	-1.317204	-2.815347	93.019648	0.259076	0.981979	0.416417	0.087029	-1.156986	1.335743	4.414216	0.077043	29.791265	-11.242809	0.000000	1.518548	-0.382769	26.899857	3.249588	0.056716	32.527239	-8.820769	0.000000	0.208809	0.244651	-1.220982	0.387779	0.325386	-1.297293	0.343052	0.594845	-1.297293	0.238647	0.594845	-1.068359	0.193900	0.498893	-0.992048	0.119313	0.378965	-0.915736	1.491499	2.767543	-6.790735	0.000000	0.000000	17.797438	-0.177038	11.510277	23.127095	-20.002222	83.515568	58.478172	32.674480	2.372686	-7.378939	17.324653	-14.067676	58.364387	55.619671	69.759474	-4.941687	-11.270004
0.163265	-1.370619	-2.897161	92.893207	0.259166	0.981831	0.416775	0.303979	-1.250145	1.712505	4.519198	0.078875	29.671642	-11.494941	0.000000	1.583664	-0.331300	26.808881	3.139545	0.054795	32.523599	-8.843145	0.000000	0.214794	0.234694	-1.202883	0.398894	0.312143	-1.278063	0.352886	0.570635	-1.278063	0.245488	0.570635	-1.052523	0.199458	0.478588	-0.977343	0.122733	0.363541	-0.902162	1.534254	2.654904	-6.690076	0.000000	0.000000	18.359399	0.081791	11.127636	23.325208	-19.813705	83.948674	58.287964	33.069498	3.260660	-7.163332	19.174403	-13.797530	62.453283	55.694176	65.393994	-4.694833	-11.407009
0.183673	-1.423887	-2.981671	92.760866	0.259412	0.981622	0.417116	0.553587	-1.341991	1.908515	4.674518	0.081586	29.651557	-11.514119	0.000000	1.678107	-0.287916	26.550177	3.074480	0.053660	32.587076	-8.703996	0.000000	0.221770	0.221344	-1.181049	0.411850	0.294387	-1.254865	0.364347	0.538176	-1.254865	0.253461	0.538176	-1.033418	0.205936	0.451365	-0.959602	0.126720	0.342862	-0.885787	1.584084	2.503887	-6.568641	0.000000	0.000000	19.007947	0.365466	10.603618	23.527147	-19.513043	84.721150	57.919551	32.774565	4.197195	-6.723914	21.220039	-13.425939	67.264607	55.557658	60.727356	-4.221008	-11.590292
0.204082	-1.480728	-3.061232	92.614819	0.259803	0.981381	0.417418	0.815676	-1.434644	1.966648	4.862174	0.084861	29.712439	-11.344622	0.000000	1.785116	-0.247749	26.151808	3.045929	0.053161	32.702275	-8.440576	0.000000	0.229507	0.205208	-1.154989	0.426217	0.272927	-1.227176	0.377057	0.498943	-1.227176	0.262303	0.498943	-1.010616	0.213120	0.418460	-0.938429	0.131140	0.317867	-0.866242	1.639344	2.321353	-6.423705	0.000000	0.000000	19.728899	0.666768	9.982048	23.713892	-19.142698	85.698803	57.408092	32.038086	5.115829	-6.141854	23.340421	-13.018888	72.445897	55.277356	56.003665	-3.588448	-11.782386
